<?xml version="1.0" encoding="UTF-8"?>
<svg width="70px" height="70px" viewBox="0 0 70 70" version="1.1" xmlns="http://www.w3.org/2000/svg" xmlns:xlink="http://www.w3.org/1999/xlink">
    <!-- Generator: Sketch 61.2 (89653) - https://sketch.com -->
    <title>group5</title>
    <desc>Created with Sketch.</desc>
    <defs>
        <path d="M35,0 C54.32997,0 70,15.67003 70,35 C70,54.32997 54.32997,70 35,70 C15.67003,70 0,54.32997 0,35 C0,15.67003 15.67003,0 35,0 Z" id="path-1"></path>
        <path d="M20.72724,0.8 C21.16783,0.8 21.525,1.13688 21.525,1.55243 L21.525,10.22257 C21.525,10.63805 21.16798,10.975 20.72724,10.975 L1.04776,10.975 C0.60717,10.975 0.25,10.63812 0.25,10.22257 L0.25,1.55243 C0.25,1.13688 0.60717,0.8 1.04776,0.8 L20.72724,0.8 Z" id="path-3"></path>
        <linearGradient x1="15.5333333%" y1="47.1428571%" x2="15.5333333%" y2="173.251232%" id="linearGradient-5">
            <stop stop-color="#61DB99" offset="0%"></stop>
            <stop stop-color="#019F74" offset="100%"></stop>
        </linearGradient>
        <path d="M20.72724,0.8 C21.16783,0.8 21.525,1.13688 21.525,1.55243 L21.525,10.22257 C21.525,10.63805 21.16798,10.975 20.72724,10.975 L1.04776,10.975 C0.60717,10.975 0.25,10.63812 0.25,10.22257 L0.25,1.55243 C0.25,1.13688 0.60717,0.8 1.04776,0.8 L20.72724,0.8 Z" id="path-6"></path>
        <linearGradient x1="15.533276%" y1="47.7694398%" x2="21.2065013%" y2="47.7694398%" id="linearGradient-8">
            <stop stop-color="#61DB99" offset="0%"></stop>
            <stop stop-color="#019F74" offset="100%"></stop>
        </linearGradient>
        <path d="M20.72724,0.8 C21.16783,0.8 21.525,1.13694 21.525,1.5525 L21.525,1.5525 L21.525,10.22257 C21.525,10.63813 21.16783,10.975 20.72724,10.975 L20.72724,10.975 L1.40111,10.975 L0.27166,9.90973 L0.25,9.86596 L0.25,1.5525 C0.25,1.13687 0.60717,0.8 1.04776,0.8 L1.04776,0.8 L20.72724,0.8 Z" id="path-9"></path>
        <linearGradient x1="43.3086151%" y1="48.1471617%" x2="43.2451383%" y2="47.6759586%" id="linearGradient-11">
            <stop stop-color="#009E74" offset="0%"></stop>
            <stop stop-color="#009E74" offset="100%"></stop>
        </linearGradient>
        <path d="M20.80224,0.875 C21.24283,0.875 21.6,1.21187 21.6,1.62743 L21.6,10.2975 C21.6,10.71313 21.24283,11.05 20.80224,11.05 L1.12276,11.05 C0.68217,11.05 0.325,10.71313 0.325,10.29757 L0.325,1.62743 C0.325,1.21187 0.68217,0.875 1.12276,0.875 L20.80224,0.875 Z" id="path-12"></path>
        <linearGradient x1="15.2866667%" y1="47.0289409%" x2="15.2866667%" y2="173.137315%" id="linearGradient-14">
            <stop stop-color="#61DB99" offset="0%"></stop>
            <stop stop-color="#019F74" offset="100%"></stop>
        </linearGradient>
        <path d="M20.80224,0.875 C21.24283,0.875 21.6,1.21187 21.6,1.62743 L21.6,10.2975 C21.6,10.71313 21.24283,11.05 20.80224,11.05 L1.12276,11.05 C0.68217,11.05 0.325,10.71313 0.325,10.29757 L0.325,1.62743 C0.325,1.21187 0.68217,0.875 1.12276,0.875 L20.80224,0.875 Z" id="path-15"></path>
        <linearGradient x1="15.2866035%" y1="47.6555243%" x2="20.9598293%" y2="47.6555243%" id="linearGradient-17">
            <stop stop-color="#61DB99" offset="0%"></stop>
            <stop stop-color="#019F74" offset="100%"></stop>
        </linearGradient>
        <path d="M20.80224,0.875 C21.24283,0.875 21.6,1.21194 21.6,1.62749 L21.6,1.62749 L21.6,10.29758 C21.6,10.71313 21.24283,11.05 20.80224,11.05 L20.80224,11.05 L1.47597,11.05 L0.34652,9.98474 L0.325,9.9409 L0.325,1.62749 C0.325,1.21187 0.68217,0.875 1.12276,0.875 L1.12276,0.875 L20.80224,0.875 Z" id="path-18"></path>
        <linearGradient x1="43.2484837%" y1="48.0901113%" x2="43.2066404%" y2="47.6808182%" id="linearGradient-20">
            <stop stop-color="#009E74" offset="0%"></stop>
            <stop stop-color="#009E74" offset="100%"></stop>
        </linearGradient>
        <path d="M20.87724,0.025 C21.31783,0.025 21.675,0.36188 21.675,0.77743 L21.675,9.44757 C21.675,9.86312 21.31783,10.2 20.87724,10.2 L1.19776,10.2 C0.75717,10.2 0.4,9.86312 0.4,9.44757 L0.4,0.77743 C0.4,0.36188 0.75717,0.025 1.19776,0.025 L20.87724,0.025 Z" id="path-21"></path>
        <linearGradient x1="15.04%" y1="46.8011084%" x2="15.04%" y2="172.909483%" id="linearGradient-23">
            <stop stop-color="#61DB99" offset="0%"></stop>
            <stop stop-color="#019F74" offset="100%"></stop>
        </linearGradient>
        <path d="M20.87724,0.025 C21.31783,0.025 21.675,0.36188 21.675,0.77743 L21.675,9.44757 C21.675,9.86312 21.31783,10.2 20.87724,10.2 L1.19776,10.2 C0.75717,10.2 0.4,9.86312 0.4,9.44757 L0.4,0.77743 C0.4,0.36188 0.75717,0.025 1.19776,0.025 L20.87724,0.025 Z" id="path-24"></path>
        <linearGradient x1="15.0399504%" y1="47.4276935%" x2="20.713176%" y2="47.4276935%" id="linearGradient-26">
            <stop stop-color="#61DB99" offset="0%"></stop>
            <stop stop-color="#019F74" offset="100%"></stop>
        </linearGradient>
        <path d="M20.87724,0.025 C21.31783,0.025 21.675,0.36188 21.675,0.77743 L21.675,0.77743 L21.675,9.44757 C21.675,9.86312 21.31783,10.2 20.87724,10.2 L20.87724,10.2 L1.55111,10.2 L0.42166,9.13473 L0.4,9.09095 L0.4,0.77743 C0.4,0.36188 0.75717,0.025 1.19776,0.025 L1.19776,0.025 L20.87724,0.025 Z" id="path-27"></path>
        <linearGradient x1="43.2397563%" y1="48.1362303%" x2="43.0451744%" y2="46.5626596%" id="linearGradient-29">
            <stop stop-color="#009E74" offset="0%"></stop>
            <stop stop-color="#009E74" offset="100%"></stop>
        </linearGradient>
        <path d="M20.95224,0.1 C21.39283,0.1 21.75,0.43688 21.75,0.85243 L21.75,9.5225 C21.75,9.93805 21.3929,10.275 20.95224,10.275 L1.27276,10.275 C0.83217,10.275 0.475,9.93812 0.475,9.52257 L0.475,0.85243 C0.475,0.43688 0.83217,0.1 1.27276,0.1 L20.95224,0.1 Z" id="path-30"></path>
        <linearGradient x1="14.7933333%" y1="46.6871921%" x2="14.7933333%" y2="172.795567%" id="linearGradient-32">
            <stop stop-color="#A7F3CE" offset="0%"></stop>
            <stop stop-color="#62DB9A" offset="100%"></stop>
        </linearGradient>
        <path d="M20.95224,0.1 C21.39283,0.1 21.75,0.43688 21.75,0.85243 L21.75,9.5225 C21.75,9.93805 21.3929,10.275 20.95224,10.275 L1.27276,10.275 C0.83217,10.275 0.475,9.93812 0.475,9.52257 L0.475,0.85243 C0.475,0.43688 0.83217,0.1 1.27276,0.1 L20.95224,0.1 Z" id="path-33"></path>
        <linearGradient x1="14.7932925%" y1="47.3137819%" x2="20.4665173%" y2="47.3137819%" id="linearGradient-35">
            <stop stop-color="#A7F3CE" offset="0%"></stop>
            <stop stop-color="#62DB9A" offset="100%"></stop>
        </linearGradient>
        <path d="M18.28038,0.025 L18.2546944,0.144982963 C18.2415433,0.226448889 18.23653,0.31074 18.24081,0.39708 C18.26995,0.98246 18.72885,1.46216 19.29032,1.49255 C19.48231,1.5029 19.6643,1.46224 19.825,1.38247 L19.825,1.38247 L19.825,7.91745 L19.7005586,7.86513719 C19.5724863,7.8205225 19.43404,7.799575 19.28989,7.80745 C18.7285,7.83806 18.26981,8.31791 18.24074,8.90336 C18.23439,9.03273 18.24888,9.15755 18.28031,9.275 L18.28031,9.275 L1.94469,9.275 L1.97036,9.15516667 C1.98349556,9.0738 1.98849333,8.98960667 1.98426,8.90336 C1.95526,8.31791 1.49657,7.83806 0.93511,7.80745 C0.74298,7.79702 0.56092,7.83776 0.4,7.91745 L0.4,7.91745 L0.4,1.38247 L0.524375313,1.43474359 C0.652369375,1.4793325 0.790705,1.500295 0.93475,1.49248 C1.49615,1.46216 1.95505,0.98246 1.98426,0.39701 C1.99076,0.26749 1.97619,0.14252 1.94469,0.025 L1.94469,0.025 L18.28038,0.025 Z" id="path-36"></path>
        <path d="M18.28038,0.025 L18.2546944,0.144982963 C18.2415433,0.226448889 18.23653,0.31074 18.24081,0.39708 C18.26995,0.98246 18.72885,1.46216 19.29032,1.49255 C19.48231,1.5029 19.6643,1.46224 19.825,1.38247 L19.825,1.38247 L19.825,7.91745 L19.7005586,7.86513719 C19.5724863,7.8205225 19.43404,7.799575 19.28989,7.80745 C18.7285,7.83806 18.26981,8.31791 18.24074,8.90336 C18.23439,9.03273 18.24888,9.15755 18.28031,9.275 L18.28031,9.275 L1.94469,9.275 L1.97036,9.15516667 C1.98349556,9.0738 1.98849333,8.98960667 1.98426,8.90336 C1.95526,8.31791 1.49657,7.83806 0.93511,7.80745 C0.74298,7.79702 0.56092,7.83776 0.4,7.91745 L0.4,7.91745 L0.4,1.38247 L0.524375313,1.43474359 C0.652369375,1.4793325 0.790705,1.500295 0.93475,1.49248 C1.49615,1.46216 1.95505,0.98246 1.98426,0.39701 C1.99076,0.26749 1.97619,0.14252 1.94469,0.025 L1.94469,0.025 L18.28038,0.025 Z" id="path-38"></path>
        <linearGradient x1="42.7886876%" y1="46.6766417%" x2="43.5375841%" y2="48.3675431%" id="linearGradient-40">
            <stop stop-color="#61DB99" offset="0%"></stop>
            <stop stop-color="#019F74" offset="100%"></stop>
        </linearGradient>
        <path d="M3.65,0.875 C5.18259,0.875 6.425,2.11741 6.425,3.65 C6.425,5.18259 5.18259,6.425 3.65,6.425 C2.11741,6.425 0.875,5.18259 0.875,3.65 C0.875,2.11741 2.11741,0.875 3.65,0.875 Z" id="path-41"></path>
        <linearGradient x1="16.7666667%" y1="47.0289409%" x2="16.7666667%" y2="173.137315%" id="linearGradient-43">
            <stop stop-color="#A7F3CE" offset="0%"></stop>
            <stop stop-color="#62DB9A" offset="100%"></stop>
        </linearGradient>
        <path d="M3.65,0.875 C5.18259,0.875 6.425,2.11741 6.425,3.65 C6.425,5.18259 5.18259,6.425 3.65,6.425 C2.11741,6.425 0.875,5.18259 0.875,3.65 C0.875,2.11741 2.11741,0.875 3.65,0.875 Z" id="path-44"></path>
        <linearGradient x1="42.9758738%" y1="47.1673793%" x2="43.2046936%" y2="47.6628504%" id="linearGradient-46">
            <stop stop-color="#A7F3CE" offset="0%"></stop>
            <stop stop-color="#62DB9A" offset="100%"></stop>
        </linearGradient>
        <polygon id="path-47" points="0.25 0.95 3.95 0.95 3.95 1.875 0.25 1.875"></polygon>
        <linearGradient x1="15.5333333%" y1="46.9150246%" x2="15.5333333%" y2="173.023399%" id="linearGradient-49">
            <stop stop-color="#A7F3CE" offset="0%"></stop>
            <stop stop-color="#62DB9A" offset="100%"></stop>
        </linearGradient>
        <polygon id="path-50" points="0.25 0.95 3.95 0.95 3.95 1.875 0.25 1.875"></polygon>
        <linearGradient x1="42.6971575%" y1="46.8647855%" x2="42.8360308%" y2="47.1261063%" id="linearGradient-52">
            <stop stop-color="#A7F3CE" offset="0%"></stop>
            <stop stop-color="#62DB9A" offset="100%"></stop>
        </linearGradient>
        <polygon id="path-53" points="0.35 0.5 4.05 0.5 4.05 1.425 0.35 1.425"></polygon>
        <linearGradient x1="18.4933333%" y1="47.5985222%" x2="18.4933333%" y2="173.706897%" id="linearGradient-55">
            <stop stop-color="#A7F3CE" offset="0%"></stop>
            <stop stop-color="#62DB9A" offset="100%"></stop>
        </linearGradient>
        <polygon id="path-56" points="0.35 0.5 4.05 0.5 4.05 1.425 0.35 1.425"></polygon>
        <linearGradient x1="43.3284344%" y1="47.5482387%" x2="43.4673078%" y2="47.8095589%" id="linearGradient-58">
            <stop stop-color="#A7F3CE" offset="0%"></stop>
            <stop stop-color="#62DB9A" offset="100%"></stop>
        </linearGradient>
        <path d="M18.34033,0 C22.25327,0 25.98455,1.23254 29.13088,3.56444 C31.09437,5.01983 32.72449,6.82107 33.95923,8.87981 C34.3509,8.20502 35.17486,7.88744 35.92766,8.16566 C36.77467,8.47875 37.21009,9.42625 36.90006,10.28204 L36.90006,10.28204 L35.65572,13.71703 C35.65383,13.72224 35.65143,13.72716 35.64954,13.7323 L35.64954,13.7323 L35.63144,13.77672 C35.61843,13.80874 35.60483,13.84016 35.59008,13.87093 C35.58354,13.88466 35.57656,13.8981 35.56965,13.91161 C35.55271,13.94443 35.5349,13.97637 35.51608,14.00765 C35.50983,14.01815 35.50365,14.02865 35.49718,14.039 C35.47283,14.07755 35.44709,14.115 35.41998,14.15098 C35.41787,14.15377 35.41598,14.15671 35.41387,14.1595 C35.38341,14.19929 35.35121,14.23748 35.31756,14.27397 C35.31058,14.28161 35.30287,14.28873 35.29575,14.29622 L35.2564313,14.336 L35.2564313,14.336 L35.21586,14.37434 C35.20299,14.38609 35.18991,14.3974 35.17668,14.40871 C35.15254,14.42927 35.12783,14.44895 35.10268,14.46804 C35.08843,14.4789 35.0744,14.48999 35.05964,14.50042 C35.02192,14.52707 34.98339,14.55255 34.9437,14.57583 C34.93338,14.58185 34.92247,14.58706 34.91201,14.59286 C34.879,14.61129 34.84549,14.6287 34.81133,14.64478 C34.79664,14.65168 34.78167,14.65821 34.76662,14.66467 C34.73158,14.67987 34.69604,14.69368 34.66006,14.70645 C34.65199,14.70924 34.64443,14.71299 34.63636,14.71571 L34.62407,14.71923 C34.59689,14.72812 34.56934,14.73575 34.54157,14.74317 C34.52783,14.74691 34.51424,14.75117 34.5005,14.75448 C34.4712,14.76152 34.44162,14.76718 34.41189,14.77261 C34.39945,14.77489 34.38717,14.77783 34.37481,14.77981 C34.3429,14.78495 34.3107,14.78833 34.27842,14.79148 C34.26839,14.79244 34.25843,14.79413 34.2484,14.79493 C34.20653,14.79824 34.1643,14.8 34.12192,14.8 L34.12192,14.8 L34.0543388,14.7984675 L34.0543388,14.7984675 L33.98729,14.79413 C33.97428,14.7931 33.96127,14.7909 33.94826,14.7895 C33.9162,14.7859 33.88436,14.78216 33.85274,14.7768 C33.83762,14.77423 33.82243,14.7707 33.80723,14.76769 C33.77743,14.76174 33.74784,14.75536 33.71848,14.74779 C33.70292,14.74368 33.68744,14.73906 33.67188,14.73458 C33.6428,14.72613 33.61402,14.71703 33.58545,14.70697 C33.57731,14.7041 33.56902,14.70212 33.56088,14.69911 L33.56088,14.69911 L30.16027,13.44226 C29.31319,13.12917 28.8777,12.18174 29.18773,11.3261 C29.45894,10.57729 30.21123,10.14701 30.96258,10.26104 C29.9752,8.70733 28.70643,7.34218 27.19851,6.22462 C24.61642,4.31082 21.55346,3.29922 18.34033,3.29922 C15.1272,3.29922 12.06417,4.31082 9.48215,6.22455 C6.95014,8.10119 5.09206,10.67554 4.10876,13.66923 C3.82482,14.53397 2.90076,15.00258 2.04438,14.71556 C1.18828,14.42868 0.72451,13.49506 1.00852,12.63031 C2.20641,8.98334 4.46829,5.84831 7.54978,3.56444 C10.69604,1.23254 14.42739,0 18.34033,0 Z" id="path-59"></path>
        <linearGradient x1="13.3133333%" y1="45.320197%" x2="13.3133333%" y2="171.428571%" id="linearGradient-61">
            <stop stop-color="#FFB92D" offset="0%"></stop>
            <stop stop-color="#F59500" offset="100%"></stop>
        </linearGradient>
        <path d="M18.34033,0 C22.25327,0 25.98455,1.23254 29.13088,3.56444 C31.09437,5.01983 32.72449,6.82107 33.95923,8.87981 C34.3509,8.20502 35.17486,7.88744 35.92766,8.16566 C36.77467,8.47875 37.21009,9.42625 36.90006,10.28204 L36.90006,10.28204 L35.65572,13.71703 C35.65383,13.72224 35.65143,13.72716 35.64954,13.7323 L35.64954,13.7323 L35.63144,13.77672 C35.61843,13.80874 35.60483,13.84016 35.59008,13.87093 C35.58354,13.88466 35.57656,13.8981 35.56965,13.91161 C35.55271,13.94443 35.5349,13.97637 35.51608,14.00765 C35.50983,14.01815 35.50365,14.02865 35.49718,14.039 C35.47283,14.07755 35.44709,14.115 35.41998,14.15098 C35.41787,14.15377 35.41598,14.15671 35.41387,14.1595 C35.38341,14.19929 35.35121,14.23748 35.31756,14.27397 C35.31058,14.28161 35.30287,14.28873 35.29575,14.29622 L35.2564313,14.336 L35.2564313,14.336 L35.21586,14.37434 C35.20299,14.38609 35.18991,14.3974 35.17668,14.40871 C35.15254,14.42927 35.12783,14.44895 35.10268,14.46804 C35.08843,14.4789 35.0744,14.48999 35.05964,14.50042 C35.02192,14.52707 34.98339,14.55255 34.9437,14.57583 C34.93338,14.58185 34.92247,14.58706 34.91201,14.59286 C34.879,14.61129 34.84549,14.6287 34.81133,14.64478 C34.79664,14.65168 34.78167,14.65821 34.76662,14.66467 C34.73158,14.67987 34.69604,14.69368 34.66006,14.70645 C34.65199,14.70924 34.64443,14.71299 34.63636,14.71571 L34.62407,14.71923 C34.59689,14.72812 34.56934,14.73575 34.54157,14.74317 C34.52783,14.74691 34.51424,14.75117 34.5005,14.75448 C34.4712,14.76152 34.44162,14.76718 34.41189,14.77261 C34.39945,14.77489 34.38717,14.77783 34.37481,14.77981 C34.3429,14.78495 34.3107,14.78833 34.27842,14.79148 C34.26839,14.79244 34.25843,14.79413 34.2484,14.79493 C34.20653,14.79824 34.1643,14.8 34.12192,14.8 L34.12192,14.8 L34.0543388,14.7984675 L34.0543388,14.7984675 L33.98729,14.79413 C33.97428,14.7931 33.96127,14.7909 33.94826,14.7895 C33.9162,14.7859 33.88436,14.78216 33.85274,14.7768 C33.83762,14.77423 33.82243,14.7707 33.80723,14.76769 C33.77743,14.76174 33.74784,14.75536 33.71848,14.74779 C33.70292,14.74368 33.68744,14.73906 33.67188,14.73458 C33.6428,14.72613 33.61402,14.71703 33.58545,14.70697 C33.57731,14.7041 33.56902,14.70212 33.56088,14.69911 L33.56088,14.69911 L30.16027,13.44226 C29.31319,13.12917 28.8777,12.18174 29.18773,11.3261 C29.45894,10.57729 30.21123,10.14701 30.96258,10.26104 C29.9752,8.70733 28.70643,7.34218 27.19851,6.22462 C24.61642,4.31082 21.55346,3.29922 18.34033,3.29922 C15.1272,3.29922 12.06417,4.31082 9.48215,6.22455 C6.95014,8.10119 5.09206,10.67554 4.10876,13.66923 C3.82482,14.53397 2.90076,15.00258 2.04438,14.71556 C1.18828,14.42868 0.72451,13.49506 1.00852,12.63031 C2.20641,8.98334 4.46829,5.84831 7.54978,3.56444 C10.69604,1.23254 14.42739,0 18.34033,0 Z" id="path-62"></path>
        <linearGradient x1="13.3133284%" y1="46.2316101%" x2="22.9331333%" y2="46.2316101%" id="linearGradient-64">
            <stop stop-color="#FFB92D" offset="0%"></stop>
            <stop stop-color="#F59500" offset="100%"></stop>
        </linearGradient>
        <path d="M2.87822,0.275 L2.94579125,0.2765425 L2.94579125,0.2765425 L3.01284,0.28089 C3.02585,0.28192 3.03887,0.28413 3.05188,0.28552 C3.08393,0.28912 3.11577,0.29286 3.14739,0.29822 C3.16251,0.30079 3.17771,0.30432 3.1929,0.30733 C3.2227,0.31328 3.25229,0.31966 3.28166,0.32723 C3.29721,0.33134 3.31269,0.33596 3.32825,0.34044 C3.35733,0.34889 3.38611,0.35799 3.41468,0.36805 C3.42282,0.37092 3.43111,0.3729 3.43925,0.37591 L3.43925,0.37591 L6.83984,1.63275 C7.68692,1.94584 8.12242,2.89333 7.81239,3.7489 C7.54117,4.4977 6.78889,4.92798 6.03754,4.81395 C7.02492,6.36765 8.29368,7.7328 9.8016,8.85035 C12.38368,10.76413 15.44662,11.77566 18.65974,11.77566 C21.87286,11.77566 24.93587,10.76406 27.51788,8.85035 C30.04988,6.97371 31.90795,4.39938 32.89125,1.40571 C33.17519,0.54097 34.09925,0.07244 34.95563,0.35939 C35.81172,0.64626 36.27549,1.57988 35.99149,2.44462 C34.79353,6.09164 32.53165,9.22658 29.45017,11.51044 C26.30393,13.84239 22.57259,15.075 18.65967,15.075 C14.74674,15.075 11.0154,13.84232 7.86916,11.51044 C5.90568,10.05505 4.27557,8.25383 3.04083,6.1951 C2.64916,6.86989 1.8252,7.18746 1.07241,6.90925 C0.22533,6.59623 -0.21009,5.64866 0.09994,4.7931 L0.09994,4.7931 L1.34442,1.35799 C1.34631,1.35277 1.34871,1.34785 1.3506,1.34271 L1.3506,1.34271 L1.3687,1.29829 C1.38171,1.26628 1.3953,1.23485 1.41006,1.20408 C1.4166,1.19035 1.42358,1.17692 1.43049,1.16341 C1.44742,1.13059 1.46523,1.09864 1.48406,1.06736 C1.49031,1.05686 1.49649,1.04636 1.50296,1.03601 C1.52731,0.99746 1.55305,0.96002 1.58016,0.92404 C1.58227,0.92125 1.58416,0.91831 1.58627,0.91552 C1.61672,0.87572 1.64893,0.83754 1.68258,0.80105 C1.68956,0.79341 1.69727,0.78629 1.70439,0.7788 L1.74370875,0.73901875 L1.74370875,0.73901875 L1.78428,0.70067 C1.79714,0.68893 1.81023,0.67762 1.82346,0.66631 L1.82346,0.66631 L1.89746,0.60698 C1.91171,0.59611 1.92574,0.58503 1.94049,0.5746 C1.97822,0.54795 2.01675,0.52247 2.05644,0.49919 C2.06676,0.49317 2.07766,0.48796 2.08813,0.48216 C2.12113,0.46373 2.15464,0.44632 2.18881,0.43024 C2.20349,0.42334 2.21847,0.41681 2.23351,0.41035 C2.26855,0.39515 2.3041,0.38134 2.34008,0.36857 C2.34815,0.36578 2.35571,0.36203 2.36378,0.35931 L2.36994625,0.35755 L2.37606,0.35579 L2.45857,0.33185 C2.47231,0.32811 2.4859,0.32385 2.49964,0.32054 C2.52893,0.3135 2.55852,0.30784 2.58825,0.30241 C2.60068,0.30013 2.61296,0.2972 2.62532,0.29521 C2.65723,0.29007 2.68944,0.2867 2.72171,0.28354 C2.73174,0.28258 2.7417,0.28089 2.75173,0.28009 C2.7936,0.27678 2.83584,0.275 2.87822,0.275 L2.87822,0.275 Z" id="path-65"></path>
        <radialGradient cx="18.0931067%" cy="47.5062755%" fx="18.0931067%" fy="47.5062755%" r="4.93059467%" gradientTransform="translate(0.180931,0.475063),scale(1.000000,0.461823),rotate(180.000000),translate(-0.180931,-0.475063)" id="radialGradient-67">
            <stop stop-color="#BE3F45" offset="0%"></stop>
            <stop stop-color="#FD4C54" offset="100%"></stop>
        </radialGradient>
    </defs>
    <g id="group5" stroke="none" stroke-width="1" fill="none" fill-rule="evenodd">
        <g id="Group-3">
            <mask id="mask-2" fill="white">
                <use xlink:href="#path-1"></use>
            </mask>
            <g id="Clip-2"></g>
            <polygon id="Fill-1" fill="#EBEBEB" mask="url(#mask-2)" points="-5 -5 75 -5 75 75 -5 75"></polygon>
        </g>
        <g id="Group-10" transform="translate(26.000000, 31.000000)">
            <g id="Group-6">
                <mask id="mask-4" fill="white">
                    <use xlink:href="#path-3"></use>
                </mask>
                <g id="Clip-5"></g>
                <polygon id="Fill-4" fill="url(#linearGradient-5)" mask="url(#mask-4)" points="-58 430 317 430 317 -382 -58 -382"></polygon>
            </g>
            <g id="Group-9">
                <mask id="mask-7" fill="white">
                    <use xlink:href="#path-6"></use>
                </mask>
                <g id="Clip-8"></g>
                <polygon id="Fill-7" fill="url(#linearGradient-8)" mask="url(#mask-7)" points="-58 430 317 430 317 -382 -58 -382"></polygon>
            </g>
        </g>
        <g id="Group-13" transform="translate(26.000000, 31.000000)">
            <mask id="mask-10" fill="white">
                <use xlink:href="#path-9"></use>
            </mask>
            <g id="Clip-12"></g>
            <polygon id="Fill-11" fill="url(#linearGradient-11)" mask="url(#mask-10)" points="-58 430 317 430 317 -382 -58 -382"></polygon>
        </g>
        <g id="Group-20" transform="translate(25.000000, 30.000000)">
            <g id="Group-16">
                <mask id="mask-13" fill="white">
                    <use xlink:href="#path-12"></use>
                </mask>
                <g id="Clip-15"></g>
                <polygon id="Fill-14" fill="url(#linearGradient-14)" mask="url(#mask-13)" points="-57 431 318 431 318 -381 -57 -381"></polygon>
            </g>
            <g id="Group-19">
                <mask id="mask-16" fill="white">
                    <use xlink:href="#path-15"></use>
                </mask>
                <g id="Clip-18"></g>
                <polygon id="Fill-17" fill="url(#linearGradient-17)" mask="url(#mask-16)" points="-57 431 318 431 318 -381 -57 -381"></polygon>
            </g>
        </g>
        <g id="Group-23" transform="translate(25.000000, 30.000000)">
            <mask id="mask-19" fill="white">
                <use xlink:href="#path-18"></use>
            </mask>
            <g id="Clip-22"></g>
            <polygon id="Fill-21" fill="url(#linearGradient-20)" mask="url(#mask-19)" points="-57 431 318 431 318 -381 -57 -381"></polygon>
        </g>
        <g id="Group-30" transform="translate(24.000000, 29.000000)">
            <g id="Group-26">
                <mask id="mask-22" fill="white">
                    <use xlink:href="#path-21"></use>
                </mask>
                <g id="Clip-25"></g>
                <polygon id="Fill-24" fill="url(#linearGradient-23)" mask="url(#mask-22)" points="-56 432 319 432 319 -380 -56 -380"></polygon>
            </g>
            <g id="Group-29">
                <mask id="mask-25" fill="white">
                    <use xlink:href="#path-24"></use>
                </mask>
                <g id="Clip-28"></g>
                <polygon id="Fill-27" fill="url(#linearGradient-26)" mask="url(#mask-25)" points="-56 432 319 432 319 -380 -56 -380"></polygon>
            </g>
        </g>
        <g id="Group-33" transform="translate(24.000000, 29.000000)">
            <mask id="mask-28" fill="white">
                <use xlink:href="#path-27"></use>
            </mask>
            <g id="Clip-32"></g>
            <polygon id="Fill-31" fill="url(#linearGradient-29)" mask="url(#mask-28)" points="-56 432 319 432 319 -380 -56 -380"></polygon>
        </g>
        <g id="Group-40" transform="translate(23.000000, 28.000000)">
            <g id="Group-36">
                <mask id="mask-31" fill="white">
                    <use xlink:href="#path-30"></use>
                </mask>
                <g id="Clip-35"></g>
                <polygon id="Fill-34" fill="url(#linearGradient-32)" mask="url(#mask-31)" points="-55 433 320 433 320 -379 -55 -379"></polygon>
            </g>
            <g id="Group-39">
                <mask id="mask-34" fill="white">
                    <use xlink:href="#path-33"></use>
                </mask>
                <g id="Clip-38"></g>
                <polygon id="Fill-37" fill="url(#linearGradient-35)" mask="url(#mask-34)" points="-55 433 320 433 320 -379 -55 -379"></polygon>
            </g>
        </g>
        <g id="Group-47" transform="translate(24.000000, 29.000000)">
            <g id="Group-43">
                <mask id="mask-37" fill="white">
                    <use xlink:href="#path-36"></use>
                </mask>
                <g id="Clip-42"></g>
                <polygon id="Fill-41" fill="url(#linearGradient-23)" mask="url(#mask-37)" points="-56 432 319 432 319 -380 -56 -380"></polygon>
            </g>
            <g id="Group-46">
                <mask id="mask-39" fill="white">
                    <use xlink:href="#path-38"></use>
                </mask>
                <g id="Clip-45"></g>
                <polygon id="Fill-44" fill="url(#linearGradient-40)" mask="url(#mask-39)" points="-56 432 319 432 319 -380 -56 -380"></polygon>
            </g>
        </g>
        <g id="Group-54" transform="translate(30.000000, 30.000000)">
            <g id="Group-50">
                <mask id="mask-42" fill="white">
                    <use xlink:href="#path-41"></use>
                </mask>
                <g id="Clip-49"></g>
                <polygon id="Fill-48" fill="url(#linearGradient-43)" mask="url(#mask-42)" points="-62 431 313 431 313 -381 -62 -381"></polygon>
            </g>
            <g id="Group-53">
                <mask id="mask-45" fill="white">
                    <use xlink:href="#path-44"></use>
                </mask>
                <g id="Clip-52"></g>
                <polygon id="Fill-51" fill="url(#linearGradient-46)" mask="url(#mask-45)" points="-62 431 313 431 313 -381 -62 -381"></polygon>
            </g>
        </g>
        <g id="Group-61" transform="translate(26.000000, 29.000000)">
            <g id="Group-57">
                <mask id="mask-48" fill="white">
                    <use xlink:href="#path-47"></use>
                </mask>
                <g id="Clip-56"></g>
                <polygon id="Fill-55" fill="url(#linearGradient-49)" mask="url(#mask-48)" points="-58 432 317 432 317 -380 -58 -380"></polygon>
            </g>
            <g id="Group-60">
                <mask id="mask-51" fill="white">
                    <use xlink:href="#path-50"></use>
                </mask>
                <g id="Clip-59"></g>
                <polygon id="Fill-58" fill="url(#linearGradient-52)" mask="url(#mask-51)" points="-58 432 317 432 317 -380 -58 -380"></polygon>
            </g>
        </g>
        <g id="Group-68" transform="translate(37.000000, 35.000000)">
            <g id="Group-64">
                <mask id="mask-54" fill="white">
                    <use xlink:href="#path-53"></use>
                </mask>
                <g id="Clip-63"></g>
                <polygon id="Fill-62" fill="url(#linearGradient-55)" mask="url(#mask-54)" points="-69 426 306 426 306 -386 -69 -386"></polygon>
            </g>
            <g id="Group-67">
                <mask id="mask-57" fill="white">
                    <use xlink:href="#path-56"></use>
                </mask>
                <g id="Clip-66"></g>
                <polygon id="Fill-65" fill="url(#linearGradient-58)" mask="url(#mask-57)" points="-69 426 306 426 306 -386 -69 -386"></polygon>
            </g>
        </g>
        <g id="Group-75" transform="translate(17.000000, 17.000000)">
            <g id="Group-71">
                <mask id="mask-60" fill="white">
                    <use xlink:href="#path-59"></use>
                </mask>
                <g id="Clip-70"></g>
                <polygon id="Fill-69" fill="url(#linearGradient-61)" mask="url(#mask-60)" points="-49 444 326 444 326 -368 -49 -368"></polygon>
            </g>
            <g id="Group-74">
                <mask id="mask-63" fill="white">
                    <use xlink:href="#path-62"></use>
                </mask>
                <g id="Clip-73"></g>
                <polygon id="Fill-72" fill="url(#linearGradient-64)" mask="url(#mask-63)" points="-49 444 326 444 326 -368 -49 -368"></polygon>
            </g>
        </g>
        <g id="Group-78" transform="translate(17.000000, 38.000000)">
            <mask id="mask-66" fill="white">
                <use xlink:href="#path-65"></use>
            </mask>
            <g id="Clip-77"></g>
            <polygon id="Fill-76" fill="url(#radialGradient-67)" mask="url(#mask-66)" points="-49 423 326 423 326 -389 -49 -389"></polygon>
        </g>
    </g>
</svg>