<?xml version="1.0" encoding="UTF-8"?>
<svg width="19px" height="19px" viewBox="0 0 19 19" version="1.1" xmlns="http://www.w3.org/2000/svg">
    <!-- Generator: Sketch 59.1 (86144) - https://sketch.com -->
    <title>star (4)</title>
    <desc>Created with Sketch.</desc>
    <g id="Page-1" stroke="none" stroke-width="1" fill="none" fill-rule="evenodd">
        <g id="Homescreen" transform="translate(-102.000000, -743.000000)" fill="#30343F" fill-rule="nonzero">
            <g id="Bar/TabBar/Light" transform="translate(-1.000000, 729.000000)">
                <g id="Group">
                    <g id="Bars-/-Tabs-/_/-Inactive" transform="translate(75.000000, 14.000000)">
                        <g id="star-(4)" transform="translate(28.000000, 0.000000)">
                            <path d="M5.62475973,11 C7.53005351,11.1626719 8.1277469,11.6734774 9.27793652,12.3194499 C10.4499455,12.4994106 12.7659099,12.7131631 12.7659099,14.0884086 C12.7659099,14.6534381 12.4199179,15.0707269 11.2073874,15.0707269 C9.99485688,15.0707269 7.89552704,14.6777996 7.89552704,14.6777996 C7.89552704,14.6777996 9.64886488,15.880943 11.2073874,15.880943 C12.7659099,15.880943 15.882955,13.891945 17.4414775,13.891945 C18.2207387,13.891945 19,14.2848723 19,15.0707269 C19,15.8565815 12.7659099,19 10.4281261,19 C8.82596499,19 5.77281937,17.7119843 4,16.8986248 L4,16.8986248 L5.56553587,11.3347741 C5.59670632,11.2239686 5.61385007,11.1123772 5.62475973,11 Z M0.367562949,9.00174241 C1.79298999,8.97614286 2.83143003,9.23693822 3.50828375,9.50013353 C3.87659378,9.64333098 4.07830516,10.0673234 3.97147284,10.4705163 L3.97147284,10.4705163 L2.31818665,16.7088052 C2.27261482,16.8816021 2.1261873,17 1.95884157,17 L1.95884157,17 L0.373539582,17 C0.167345733,17 0,16.8208032 0,16.6000071 L0,16.6000071 L0,9.40173528 C0,9.18333917 0.163610337,9.00574233 0.367562949,9.00174241 Z M12.9665309,0.310729835 C13.1598054,-0.103576612 13.8394089,-0.103576612 14.0326834,0.310729835 L14.0326834,0.310729835 L15.4170318,3.2660108 L18.4992103,3.73860371 C18.9737542,3.81106795 19.1662431,4.39235722 18.8323339,4.73498708 L18.8323339,4.73498708 L16.5845355,7.04439107 L17.1164333,10.3131587 C17.1957858,10.8070183 16.6717448,11.1606753 16.249055,10.9251665 L16.249055,10.9251665 L13.5,9.40105436 L10.750945,10.9251665 C10.3219699,11.1630382 9.80499984,10.7999294 9.88356671,10.3131587 L9.88356671,10.3131587 L10.4154645,7.04517873 L8.16766615,4.73577473 C7.83375693,4.39314488 8.02624577,3.81185561 8.5007897,3.73939136 L8.5007897,3.73939136 L11.5829682,3.26679846 Z" id="Combined-Shape"></path>
                        </g>
                    </g>
                </g>
            </g>
        </g>
    </g>
</svg>