<?xml version="1.0" encoding="UTF-8"?>
<svg width="90px" height="83px" viewBox="0 0 90 83" version="1.1" xmlns="http://www.w3.org/2000/svg">
    <!-- Generator: Sketch 59.1 (86144) - https://sketch.com -->
    <title>approval</title>
    <desc>Created with Sketch.</desc>
    <g id="Page-1" stroke="none" stroke-width="1" fill="none" fill-rule="evenodd">
        <g id="Registered-successfully" transform="translate(-143.000000, -237.000000)" fill-rule="nonzero">
            <g id="approval" transform="translate(143.000000, 237.000000)">
                <path d="M2,5.47820416 L2,62.5217958 C2,64.442808 3.57407987,66 5.51592554,66 L75.4840745,66 C77.4259201,66 79,64.442808 79,62.5217958 L79,5.47820416 C79,3.557192 77.4259201,2 75.4840745,2 L5.51610134,2 C3.57407987,2 2,3.557192 2,5.47820416 Z" id="Path" fill="#FFFFFF"></path>
                <path d="M5.51609331,2 L75.4840825,2 C77.4259237,2 79,3.52623266 79,5.40905217 L79,17 L2,17 L2,5.40905217 C2,3.52623266 3.57407627,2 5.51609331,2 Z" id="Path" fill="#C9F3FF"></path>
                <rect id="Rectangle" fill="#36D28F" x="11" y="27" width="29" height="29"></rect>
                <path d="M53,63.7624141 L75.0459365,25.5697354 C75.9124707,24.0686208 77.8313248,23.5543225 79.3321172,24.4210427 L86.4306015,28.5202203 C87.931394,29.3869405 88.4455818,31.3062066 87.5790477,32.8073213 L65.5334607,71 L53,63.7624141 Z" id="Path" fill="#4DBAF6"></path>
                <path d="M83.8098595,39 L87.5697525,32.702523 C88.4554209,31.2192701 87.929879,29.3226686 86.395947,28.4664342 L79.1407184,24.4160327 C77.6067864,23.5596256 75.6453827,24.0678043 74.7598929,25.5510572 L71,31.8485341 L83.8098595,39 Z" id="Path" fill="#FFB954"></path>
                <polygon id="Path" fill="#D8D8E4" points="51 81 52.7733367 63 65 70.3916744"></polygon>
                <path d="M10.995311,8 C9.89330074,8 9,8.8956 9,10 C9,11.1044 9.89330074,12 10.995311,12 L11.0140669,12 C12.1160772,12 13,11.1044 13,10 C13,8.8956 12.0973213,8 10.995311,8 Z" id="Path" fill="#000000"></path>
                <path d="M18.995311,8 C17.8933007,8 17,8.8956 17,10 C17,11.1044 17.8933007,12 18.995311,12 L19.0140669,12 C20.1160772,12 21,11.1044 21,10 C21,8.8956 20.0973213,8 18.995311,8 Z" id="Path" fill="#000000"></path>
                <path d="M26.995311,8 C25.8933007,8 25,8.8956 25,10 C25,11.1044 25.8933007,12 26.995311,12 L27.0138674,12 C28.1158777,12 29,11.1044 29,10 C29,8.8956 28.0973213,8 26.995311,8 Z" id="Path" fill="#000000"></path>
                <path d="M69.2537231,8 L40.7462769,8 C39.7818082,8 39,8.8956 39,10 C39,11.1044 39.7818082,12 40.7462769,12 L69.2537231,12 C70.2181918,12 71,11.1044 71,10 C71,8.8956 70.2181918,8 69.2537231,8 Z" id="Path" fill="#000000"></path>
                <path d="M43,64 C42.474,64 41.958,64.214 41.586,64.586 C41.214,64.958 41,65.474 41,66 C41,66.526 41.214,67.042 41.586,67.414 C41.958,67.7858 42.474,68 43,68 C43.526,68 44.042,67.786 44.414,67.414 C44.788,67.042 45,66.526 45,66 C45,65.474 44.788,64.958 44.414,64.586 C44.044,64.2142 43.528,64 43,64 Z" id="Path" fill="#000000"></path>
                <path d="M42,56.2447089 L42,26.7552911 C42,25.7860194 41.2141562,25 40.2447089,25 L10.7552911,25 C9.78584384,25 9,25.7860194 9,26.7552911 L9,56.2447089 C9,57.2139806 9.78584384,58 10.7552911,58 L40.2447089,58 C41.2141562,58 42,57.2141562 42,56.2447089 Z M38.4894177,54.4894177 L12.5105823,54.4894177 L12.5105823,28.5105823 L38.4894177,28.5105823 L38.4894177,54.4894177 Z" id="Shape" fill="#000000"></path>
                <path d="M87.5442374,26.5561747 L80.5091281,22.494274 L80.5091281,5.27400173 C80.5091281,2.36601411 78.1434667,0 75.2355207,0 L5.27360734,0 C2.3656614,0 0,2.36601411 0,5.27400173 L0,62.9355534 C0,65.843541 2.3656614,68.2095552 5.27360734,68.2095552 L34.893242,68.2095552 C35.8640807,68.2095552 36.6510525,67.4223487 36.6510525,66.4516132 C36.6510525,65.4808776 35.8640807,64.6936712 34.893242,64.6936712 L5.27360734,64.6936712 C4.30435062,64.6936712 3.51579682,63.9050584 3.51579682,62.9357292 L3.51579682,18.986125 L76.993507,18.986125 L76.993507,21.8702046 C76.8875111,21.8912999 76.7816909,21.9146805 76.6762222,21.9429834 C75.4084893,22.2827936 74.3488811,23.0960175 73.6926905,24.232527 L68.1963685,33.7530134 L50.7425405,33.7530134 C49.7717018,33.7530134 48.98473,34.5402198 48.98473,35.5109554 C48.98473,36.4816909 49.7717018,37.2688973 50.7425405,37.2688973 L66.1666247,37.2688973 L63.3249482,42.1911349 L50.7427163,42.1911349 C49.7718775,42.1911349 48.9849058,42.9783413 48.9849058,43.9490769 C48.9849058,44.9198124 49.7718775,45.7070188 50.7427163,45.7070188 L61.2952044,45.7070188 L58.4535279,50.6292564 L50.7427163,50.6292564 C49.7718775,50.6292564 48.9849058,51.4164628 48.9849058,52.3871984 C48.9849058,53.3579339 49.7718775,54.1451403 50.7427163,54.1451403 L56.4237841,54.1451403 L51.5200201,62.6391644 C51.3962702,62.8534575 51.3191024,63.0914829 51.2937899,63.3377705 L49.4654912,81.0615174 C49.3944756,81.7509822 49.7349635,82.4179454 50.33508,82.7644358 C50.6078922,82.9219474 50.9112903,83 51.2138095,83 C51.5766216,83 51.938379,82.8878433 52.2444138,82.6663426 L66.6781476,72.2208272 C66.8787137,72.075797 67.0462331,71.8898067 67.169983,71.6755136 L69.1712502,68.2090278 L75.2356965,68.2090278 C78.1434667,68.2090278 80.5093039,65.8431895 80.5093039,62.935026 L80.5093039,49.2229028 C80.5093039,49.042538 80.481882,48.8685017 80.4314329,48.7044857 L89.3428291,33.2683488 C90.6972221,30.922551 89.8905628,27.9110206 87.5442374,26.5561747 Z M3.51562104,15.470241 L3.51562104,5.27400173 C3.51562104,4.30467253 4.30417484,3.51605975 5.27343156,3.51605975 L75.2355207,3.51605975 C76.2047775,3.51605975 76.9933313,4.30467253 76.9933313,5.27400173 L76.9933313,15.470241 L3.51562104,15.470241 Z M65.0041846,68.3955454 L55.4434532,62.8750802 L72.1584734,33.9219516 L81.7192049,39.442241 L65.0041846,68.3955454 Z M54.512341,66.3974686 L62.4195,70.9630197 L53.3653696,77.5153968 L54.512341,66.3974686 Z M76.993507,62.9355534 C76.993507,63.9048826 76.2049532,64.6934954 75.2356965,64.6934954 L71.200994,64.6934954 L76.9936828,54.6598658 L76.9936828,62.9355534 L76.993507,62.9355534 Z M86.2981255,31.5109342 L83.4771912,36.3974855 L73.9164597,30.8771961 L76.7373941,25.9906448 C76.9242493,25.6671835 77.225538,25.4358383 77.5862408,25.3391515 C77.9471193,25.2422889 78.3236423,25.2922144 78.6470794,25.4789079 L85.7864268,29.6009302 C86.4538675,29.9866227 86.6834375,30.8434436 86.2981255,31.5109342 Z" id="Shape" fill="#000000"></path>
                <path d="M24.3531488,47.4989934 C24.6911631,47.8328838 25.1340606,48 25.576958,48 C26.0198555,48 26.462926,47.8328838 26.8007673,47.4989934 L36.4931083,37.9200011 C37.1689639,37.2520493 37.1689639,36.1689583 36.4931083,35.5008355 C35.8172526,34.8330548 34.7213454,34.8330548 34.0453167,35.5008355 L25.576958,43.8703307 L21.9546833,40.2904172 C21.2788277,39.6226365 20.1829204,39.6226365 19.5068917,40.2904172 C18.8310361,40.958369 18.8310361,42.04146 19.5068917,42.7095828 L24.3531488,47.4989934 Z" id="Path" fill="#000000"></path>
                <path d="M65.235934,29 L50.764066,29 C49.7897723,29 49,28.1044 49,27 C49,25.8956 49.7897723,25 50.764066,25 L65.235934,25 C66.2102277,25 67,25.8956 67,27 C67,28.1044 66.2102277,29 65.235934,29 Z" id="Path" fill="#000000"></path>
            </g>
        </g>
    </g>
</svg>