<?xml version="1.0" encoding="UTF-8"?>
<svg width="20px" height="22px" viewBox="0 0 20 22" version="1.1" xmlns="http://www.w3.org/2000/svg">
    <!-- Generator: Sketch 59.1 (86144) - https://sketch.com -->
    <title>clock (2)</title>
    <desc>Created with Sketch.</desc>
    <g id="Page-1" stroke="none" stroke-width="1" fill="none" fill-rule="evenodd">
        <g id="Challenge" transform="translate(-47.000000, -339.000000)" fill-rule="nonzero">
            <g id="clock-(2)" transform="translate(47.000000, 339.000000)">
                <path d="M12.8374785,10.0348715 C12.6206446,9.85725815 12.2692798,9.85725815 12.0525926,10.0349116 L11.010675,10.8893325 C10.8670482,10.845661 10.7118805,10.8216798 10.5499152,10.8216798 C10.3878522,10.8216798 10.2325377,10.8457012 10.0888131,10.8894929 L7.94722397,9.13321002 C7.73053679,8.95559666 7.379172,8.95559666 7.16253372,9.13321002 C6.94584654,9.31090358 6.94579764,9.59903905 7.16253372,9.77677271 L9.3043185,11.5331759 C9.25106363,11.6508764 9.22186881,11.7781212 9.22186881,11.91086 C9.22186881,12.5113928 9.81764852,13 10.550013,13 C11.2823776,13 11.8781573,12.5114329 11.8781573,11.91086 C11.8781573,11.7780409 11.8489135,11.650716 11.7956098,11.5328551 L12.8375274,10.6784342 C13.0541657,10.5007406 13.0541657,10.2126052 12.8374785,10.0348715 Z M10.5499152,12.1808692 C10.3682912,12.1808692 10.2205566,12.0596798 10.2205566,11.9107798 C10.2205566,11.7618797 10.3683401,11.6406904 10.5499152,11.6406904 C10.7315393,11.6406904 10.8792739,11.7618797 10.8792739,11.9107798 C10.879225,12.0597199 10.7314904,12.1808692 10.5499152,12.1808692 Z" id="Shape" fill="#FF5E5E"></path>
                <path d="M15.8495943,4.9181365 L16.4109808,4.12923512 L18.6616358,5.67996775 C18.745477,5.73780333 18.8448637,5.76818205 18.9458224,5.76818205 C18.9744682,5.76818205 19.0032449,5.76573284 19.031847,5.76079147 C19.1612768,5.73836192 19.2762964,5.6662608 19.3516661,5.56030052 C20.4875829,3.96397832 20.0919138,1.75587083 18.4696745,0.63804569 C16.8473915,-0.47986539 14.6032865,-0.0903990401 13.467457,1.50592315 C13.3104732,1.72648039 13.3650136,2.03048242 13.5891141,2.18491116 L15.5992934,3.56995731 L15.0377759,4.35907354 C13.5754462,3.4587119 11.8485801,2.9373323 10.000057,2.9373323 C8.1515339,2.9373323 6.42471148,3.4587119 4.96233809,4.35907354 L4.40077692,3.56995731 L6.41095629,2.18491116 C6.63510042,2.03043945 6.68959718,1.72648039 6.53265699,1.50592315 C5.39674014,-0.0904420086 3.15272251,-0.479779453 1.53039589,0.638002722 C-0.0918870712,1.75574193 -0.487599923,3.96384942 0.648316919,5.56021458 C0.723686637,5.66617486 0.838749908,5.73827598 0.968136046,5.76070553 C0.996738112,5.76573284 1.02551485,5.76809611 1.05416058,5.76809611 C1.15511932,5.76809611 1.25454971,5.73767442 1.33834721,5.67988181 L3.58900227,4.12914918 L4.15038876,4.91805057 C1.91497358,6.6348564 0.474826833,9.30994538 0.474826833,12.310091 C0.474826833,15.5726451 2.17802525,18.4507172 4.7550932,20.1299256 L3.97039225,21.2326688 C3.8134084,21.4531831 3.86794882,21.7572281 4.09204928,21.9116568 C4.17855415,21.9712971 4.2776352,22 4.37579924,22 C4.53195342,22 4.68570589,21.9274262 4.78207957,21.7919466 L5.61114647,20.6268561 C6.92540046,21.3010746 8.41812262,21.6829785 9.99996968,21.6829785 C11.5816421,21.6829785 13.0742332,21.3011606 14.3883562,20.6271139 L15.2172484,21.7919896 C15.3136221,21.9274262 15.4673746,22 15.6235288,22 C15.7216491,22 15.8208175,21.971383 15.9072787,21.9117427 C16.1314229,21.757271 16.185876,21.453312 16.0289358,21.2327547 L15.2444532,20.1303123 C17.8217394,18.4511469 19.5251125,15.5729459 19.5251125,12.3102199 C19.5252435,9.30994538 18.0851404,6.6348564 15.8495943,4.9181365 Z M14.6021512,1.69257825 C15.4793394,0.857915429 16.8653824,0.723037354 17.9013449,1.43670093 C18.9373073,2.15053637 19.2824971,3.47830553 18.7854325,4.57481831 L14.6021512,1.69257825 Z M1.21472515,4.57486128 C0.717616885,3.4783485 1.0628067,2.15053637 2.09881282,1.43674389 C2.5518608,1.12462082 3.07171972,0.974789709 3.58686257,0.974789709 C4.24960081,0.974789709 4.90443528,1.22293271 5.39796283,1.69262122 L1.21472515,4.57486128 Z M10.000057,20.7078087 C5.29420938,20.7078087 1.46576832,16.9406327 1.46576832,12.310091 C1.46576832,7.67954918 5.29420938,3.91241614 10.000057,3.91241614 C14.7059046,3.91241614 18.5343457,7.67959215 18.5343457,12.310091 C18.5343457,16.9405898 14.705861,20.7078087 10.000057,20.7078087 Z" id="Shape" fill="#000000"></path>
                <path d="M10.0000218,5 C6.14021587,5 3,8.14020608 3,12 C3,15.8597939 6.14021587,19 10.0000218,19 C13.8598278,19 17,15.8597939 17,12 C17,8.14020608 13.8598278,5 10.0000218,5 Z M14.6532924,15.9530423 L14.3187404,15.618535 C14.1253923,15.4252311 13.8118725,15.4252311 13.6185681,15.618535 C13.42522,15.8118825 13.42522,16.1254013 13.6185681,16.3187052 L13.9530764,16.6532561 C13.0048373,17.4600271 11.8080077,17.9828202 10.4951518,18.0886355 L10.4951518,17.6124884 C10.4951518,17.3390703 10.2734844,17.1173599 10.0000218,17.1173599 C9.72655926,17.1173599 9.50489183,17.3390703 9.50489183,17.6124884 L9.50489183,18.0886355 C8.1919923,17.9828202 6.99520635,17.4600271 6.04692355,16.6532561 L6.38147556,16.3187052 C6.57482367,16.1253577 6.57482367,15.8118388 6.38147556,15.618535 C6.18812745,15.4252311 5.87460767,15.4252311 5.68121593,15.618535 L5.34666392,15.9530859 C4.53989048,15.0048497 4.0170957,13.8080239 3.91128004,12.4951284 L4.38742866,12.4951284 C4.66089122,12.4951284 4.88255865,12.2734617 4.88255865,12 C4.88255865,11.7265383 4.66089122,11.5048716 4.38742866,11.5048716 L3.91128004,11.5048716 C4.0170957,10.1919761 4.53989048,8.9951939 5.34666392,8.04691406 L5.68121593,8.38146502 C5.7779118,8.47811695 5.90462877,8.52646474 6.03130211,8.52646474 C6.15797545,8.52646474 6.28473605,8.47807332 6.38138829,8.38146502 C6.5747364,8.18811752 6.5747364,7.87459871 6.38138829,7.68120757 L6.04683628,7.34665661 C6.99507544,6.53988568 8.19190502,6.01709253 9.50480456,5.9112772 L9.50480456,6.38746797 C9.50480456,6.66088604 9.72647199,6.88259642 9.99993455,6.88259642 C10.2733971,6.88259642 10.4950645,6.66088604 10.4950645,6.38746797 L10.4950645,5.9112772 C11.8079641,6.01709253 13.00475,6.53988568 13.9529892,7.34665661 L13.6184808,7.68120757 C13.4251327,7.87455508 13.4251327,8.18807388 13.6184808,8.38146502 C13.7151767,8.47811695 13.8418936,8.52646474 13.968567,8.52646474 C14.0952403,8.52646474 14.2220009,8.47807332 14.3186532,8.38146502 L14.6532052,8.04695769 C15.4599786,8.9951939 15.9827298,10.1919761 16.0885891,11.5048716 L15.6123968,11.5048716 C15.3389342,11.5048716 15.1172668,11.7265383 15.1172668,12 C15.1172668,12.2734617 15.3390215,12.4951284 15.6124404,12.4951284 L16.0885891,12.4951284 C15.9828607,13.8080239 15.4600659,15.0048061 14.6532924,15.9530423 Z" id="Shape" fill="#000000"></path>
            </g>
        </g>
    </g>
</svg>