<?xml version="1.0" encoding="UTF-8"?>
<svg width="18px" height="18px" viewBox="0 0 18 18" version="1.1" xmlns="http://www.w3.org/2000/svg">
    <!-- Generator: Sketch 59.1 (86144) - https://sketch.com -->
    <title>setup</title>
    <desc>Created with Sketch.</desc>
    <g id="Page-1" stroke="none" stroke-width="1" fill="none" fill-rule="evenodd">
        <g id="Homescreen" transform="translate(-327.000000, -743.000000)" fill="#30343F" fill-rule="nonzero">
            <g id="Bar/TabBar/Light" transform="translate(-1.000000, 729.000000)">
                <g id="Group">
                    <g id="Bars-/-Tabs-/_/-Inactive-Copy-3" transform="translate(300.000000, 14.000000)">
                        <g id="setup" transform="translate(28.000000, 0.000000)">
                            <path d="M3.78127896,13.0129096 C4.24120482,13.0129096 4.61538462,13.3896905 4.61538462,13.8528134 L4.61538462,13.8528134 L4.61538462,16.8204736 C4.61538462,17.2836525 4.24120482,17.6603774 3.78127896,17.6603774 L3.78127896,17.6603774 L0.834105653,17.6603774 C0.374179796,17.6603774 -1.99840144e-14,17.2836525 -1.99840144e-14,16.8204736 L-1.99840144e-14,16.8204736 L-1.99840144e-14,13.8528134 C-1.99840144e-14,13.3896905 0.374179796,13.0129096 0.834105653,13.0129096 L0.834105653,13.0129096 Z M10.2428174,13.0129096 C10.7027433,13.0129096 11.0769231,13.3896905 11.0769231,13.8528134 L11.0769231,13.8528134 L11.0769231,16.8204736 C11.0769231,17.2836525 10.7027433,17.6603774 10.2428174,17.6603774 L10.2428174,17.6603774 L7.29564411,17.6603774 C6.83571826,17.6603774 6.46153846,17.2836525 6.46153846,16.8204736 L6.46153846,16.8204736 L6.46153846,13.8528134 C6.46153846,13.3896905 6.83571826,13.0129096 7.29564411,13.0129096 L7.29564411,13.0129096 Z M17.1658943,13.0129096 C17.6258202,13.0129096 18,13.3896905 18,13.8528134 L18,13.8528134 L18,16.8204736 C18,17.2836525 17.6258202,17.6603774 17.1658943,17.6603774 L17.1658943,17.6603774 L14.218721,17.6603774 C13.7587952,17.6603774 13.3846154,17.2836525 13.3846154,16.8204736 L13.3846154,16.8204736 L13.3846154,13.8528134 C13.3846154,13.3896905 13.7587952,13.0129096 14.218721,13.0129096 L14.218721,13.0129096 Z M3.78127896,6.50645482 C4.24120482,6.50645482 4.61538462,6.88323566 4.61538462,7.34635862 L4.61538462,7.34635862 L4.61538462,10.3140187 C4.61538462,10.7771417 4.24120482,11.1539225 3.78127896,11.1539225 L3.78127896,11.1539225 L0.834105653,11.1539225 C0.374179796,11.1539225 -1.99840144e-14,10.7771417 -1.99840144e-14,10.3140187 L-1.99840144e-14,10.3140187 L-1.99840144e-14,7.34635862 C-1.99840144e-14,6.88323566 0.374179796,6.50645482 0.834105653,6.50645482 L0.834105653,6.50645482 Z M10.2428174,6.50645482 C10.7027433,6.50645482 11.0769231,6.88323566 11.0769231,7.34635862 L11.0769231,7.34635862 L11.0769231,10.3140187 C11.0769231,10.7771417 10.7027433,11.1539225 10.2428174,11.1539225 L10.2428174,11.1539225 L7.29564411,11.1539225 C6.83571826,11.1539225 6.46153846,10.7771417 6.46153846,10.3140187 L6.46153846,10.3140187 L6.46153846,7.34635862 C6.46153846,6.88323566 6.83571826,6.50645482 7.29564411,6.50645482 L7.29564411,6.50645482 Z M17.1658943,6.50645482 C17.6258202,6.50645482 18,6.88323566 18,7.34635862 L18,7.34635862 L18,10.3140187 C18,10.7771417 17.6258202,11.1539225 17.1658943,11.1539225 L17.1658943,11.1539225 L14.218721,11.1539225 C13.7587952,11.1539225 13.3846154,10.7771417 13.3846154,10.3140187 L13.3846154,10.3140187 L13.3846154,7.34635862 C13.3846154,6.88323566 13.7587952,6.50645482 14.218721,6.50645482 L14.218721,6.50645482 Z M3.78127896,0 C4.24120482,0 4.61538462,0.376780847 4.61538462,0.839903806 L4.61538462,0.839903806 L4.61538462,3.80756392 C4.61538462,4.27068688 4.24120482,4.64746773 3.78127896,4.64746773 L3.78127896,4.64746773 L0.834105653,4.64746773 C0.374179796,4.64746773 -1.99840144e-14,4.27068688 -1.99840144e-14,3.80756392 L-1.99840144e-14,3.80756392 L-1.99840144e-14,0.839903806 C-1.99840144e-14,0.376780847 0.374179796,0 0.834105653,0 L0.834105653,0 Z M10.2428174,0 C10.7027433,0 11.0769231,0.376780847 11.0769231,0.839903806 L11.0769231,0.839903806 L11.0769231,3.80756392 C11.0769231,4.27068688 10.7027433,4.64746773 10.2428174,4.64746773 L10.2428174,4.64746773 L7.29564411,4.64746773 C6.83571826,4.64746773 6.46153846,4.27068688 6.46153846,3.80756392 L6.46153846,3.80756392 L6.46153846,0.839903806 C6.46153846,0.376780847 6.83571826,0 7.29564411,0 L7.29564411,0 Z M17.1658943,0 C17.6258202,0 18,0.376780847 18,0.839903806 L18,0.839903806 L18,3.80756392 C18,4.27068688 17.6258202,4.64746773 17.1658943,4.64746773 L17.1658943,4.64746773 L14.218721,4.64746773 C13.7587952,4.64746773 13.3846154,4.27068688 13.3846154,3.80756392 L13.3846154,3.80756392 L13.3846154,0.839903806 C13.3846154,0.376780847 13.7587952,0 14.218721,0 L14.218721,0 Z" id="Combined-Shape"></path>
                        </g>
                    </g>
                </g>
            </g>
        </g>
    </g>
</svg>