<?xml version="1.0" encoding="UTF-8"?>
<svg width="20px" height="20px" viewBox="0 0 20 20" version="1.1" xmlns="http://www.w3.org/2000/svg">
    <!-- Generator: Sketch 59.1 (86144) - https://sketch.com -->
    <title>paint-roller</title>
    <desc>Created with Sketch.</desc>
    <defs>
        <linearGradient x1="78.1223065%" y1="11.5712859%" x2="14.8684167%" y2="87.9629806%" id="linearGradient-1">
            <stop stop-color="#F78361" offset="0%"></stop>
            <stop stop-color="#F54B64" offset="100%"></stop>
        </linearGradient>
    </defs>
    <g id="Page-1" stroke="none" stroke-width="1" fill="none" fill-rule="evenodd">
        <g id="Challenge" transform="translate(-27.000000, -743.000000)" fill="#30343F">
            <g id="paint-roller" transform="translate(27.000000, 743.000000)">
                <path d="M18.17813,3 C19.1632192,3 20,3.81154668 20,4.86080121 L20,4.86080121 L20,9.25885044 C20,10.3103948 19.1615571,11.1196911 18.1781687,11.1196911 L18.1781687,11.1196911 L10.0638415,11.1196911 C9.70008593,11.1196911 9.40157522,11.4207641 9.40157522,11.7960985 L9.40157522,11.7960985 L9.40157522,12.5699814 C10.1139734,12.814993 10.643624,13.4987041 10.643624,14.3333465 L10.643624,14.3333465 L10.643624,18.1391988 C10.643624,19.1652392 9.82632391,20 8.82179269,20 C8.3417714,20 7.87207024,19.8014166 7.53309072,19.4551788 C7.18931832,19.1040455 7,18.6366837 7,18.1391988 L7,18.1391988 L7,14.3333465 C7,13.5142987 7.52095394,12.8176777 8.24201015,12.5697051 L8.24201015,12.5697051 L8.24201015,11.7960985 C8.24201015,10.7470019 9.07875231,9.93529726 10.0638415,9.93529726 L10.0638415,9.93529726 L18.17813,9.93529726 C18.5388707,9.93529726 18.8403963,9.63931723 18.8403963,9.25885044 L18.8403963,9.25885044 L18.8403963,4.86080121 C18.8403963,4.48412448 18.5405327,4.18439387 18.17813,4.18439387 L18.17813,4.18439387 L17.4747378,4.18439387 L17.4747378,3 Z M10,0 C9.91397087,0.206638736 9.86669621,0.431482843 9.86669621,0.666479945 L9.86669621,0.666479945 L9.86669621,3.74999514 C9.86669621,4.11748688 9.54880203,4.41647508 9.15807262,4.41647508 C8.7673432,4.41647508 8.44940766,4.11748688 8.44940766,3.74999514 C8.44940766,2.73901356 7.57492984,1.91650426 6.50006204,1.91650426 C5.44603976,1.91650426 4.55059234,2.71614015 4.55059234,3.74999514 L4.55059234,3.74999514 L4.55059234,9.33348115 C4.55059234,9.70824727 4.22802446,10 3.84196874,10 C3.45123933,10 3.13330379,9.7010118 3.13330379,9.33348115 L3.13330379,9.33348115 L3.13330379,0.666479945 C3.13330379,0.431521743 3.08602913,0.206677637 3,0 L3,0 Z M2.18673755,0 C2.63521147,0 3,0.318922816 3,0.71091655 L3,0.71091655 L3,8 L0.813309916,8 C0.370389709,8 0,7.68896104 0,7.28908345 L0,7.28908345 L0,0.71091655 C0,0.315852261 0.367304315,0 0.813309916,0 L0.813309916,0 Z M15.3389686,0 C15.7013515,0 16,0.315643154 16,0.710912863 L16,0.710912863 L16,7.28908714 C16,7.68892116 15.6990367,8 15.33893,8 L15.33893,8 L6,8 L6,4 C6,3.60493776 6.2985328,3.28908714 6.6610314,3.28908714 C7.02549759,3.28908714 7.32202422,3.6080083 7.32202422,4 C7.32202422,5.07838174 8.13780039,5.95572614 9.14045856,5.95572614 C10.1431167,5.95572614 10.9588543,5.07838174 10.9588543,4 L10.9588543,4 L10.9588543,0.710912863 C10.9588543,0.318921162 11.2554195,0 11.6198857,0 L11.6198857,0 Z" id="Combined-Shape"></path>
            </g>
        </g>
    </g>
</svg>