<?xml version="1.0" encoding="UTF-8"?>
<svg width="19px" height="19px" viewBox="0 0 19 19" version="1.1" xmlns="http://www.w3.org/2000/svg">
    <!-- Generator: Sketch 59.1 (86144) - https://sketch.com -->
    <title>Combined Shape</title>
    <desc>Created with Sketch.</desc>
    <g id="Page-1" stroke="none" stroke-width="1" fill="none" fill-rule="evenodd">
        <g id="Homescreen" transform="translate(-177.000000, -743.000000)" fill="#30343F" fill-rule="nonzero">
            <g id="Bar/TabBar/Light" transform="translate(-1.000000, 729.000000)">
                <g id="Group">
                    <g id="Bars-/-Tabs-/_/-Inactive-Copy" transform="translate(150.000000, 14.000000)">
                        <g id="target" transform="translate(28.000000, 0.000000)">
                            <path d="M8.99787816,2 C10.4894713,2 11.8949092,2.34325437 13.1323013,2.94841381 C13.1217971,3.04563614 13.1197173,3.14484261 13.1281206,3.24404907 L13.1281206,3.24404907 L13.2289397,4.48412988 L12.4831431,5.18849578 C11.4726623,4.59524112 10.2794088,4.25198676 8.99997899,4.25198676 C5.34662618,4.25198676 2.38444822,7.04960907 2.38444822,10.5 C2.38444822,13.9503909 5.34874802,16.7480132 9.00207983,16.7480132 C12.6554537,16.7480132 15.6176316,13.9503909 15.6176316,10.5 C15.6176316,9.29365931 15.2541661,8.16667386 14.6260163,7.21032354 L14.6260163,7.21032354 L15.4495648,6.43254486 L16.5945201,6.51587829 C16.6386166,6.51786242 16.6827342,6.51984655 16.7247509,6.51984655 C16.7982801,6.51984655 16.8739102,6.51587829 16.9474394,6.50595764 C17.6197068,7.69643522 18,9.05556379 18,10.5 C18,15.1944202 13.9705766,19 9,19 C4.02942337,19 0,15.1944202 0,10.5 C0,5.80556 4.02940236,2 8.99787816,2 Z M8.99998933,6 C9.68066339,6 10.3250218,6.15145769 10.9032565,6.42237497 L10.9032565,6.42237497 L9.17924211,8.14600616 C9.11949829,8.14176108 9.05975448,8.13960654 9.00001067,8.13960654 C7.69631532,8.13960654 6.63799635,9.19767717 6.63795368,10.5010453 C6.63795368,11.8044134 7.69202657,12.8625267 8.99785562,12.8625267 C10.3036847,12.8625267 11.3598699,11.8044347 11.3598699,10.5010453 C11.3598699,10.4413581 11.3577362,10.381607 11.3534475,10.3218559 L11.3534475,10.3218559 L13.0412529,8.63451055 L13.0775046,8.59824603 C13.3484641,9.17636644 13.5,9.8205736 13.5,10.5010666 C13.5,12.9862527 11.4857587,15 8.99998933,15 C6.51421998,15 4.5,12.9841195 4.5,10.4989334 C4.5,8.01374733 6.51421998,6 8.99998933,6 Z M15.9591627,0.5 C16.0535352,0.5 16.1441313,0.567011168 16.1518383,0.676143641 L16.1518383,0.676143641 L16.2674437,2.15996236 L16.8281298,1.60281236 C16.9379356,1.49176528 17.0863151,1.43624175 17.2308218,1.43624175 C17.3753286,1.43624175 17.5217428,1.49176528 17.6334754,1.60281236 L17.6334754,1.60281236 L17.972623,1.94169741 C18.1961267,2.16379157 18.1961267,2.52182267 17.972623,2.74391682 L17.972623,2.74391682 L17.4832269,3.23022644 L18.8223225,3.3336151 C18.9860968,3.34510273 19.0592942,3.54422163 18.9436889,3.65909791 L18.9436889,3.65909791 L16.739499,5.8494058 C16.5564571,6.02937865 16.3117398,6.1289381 16.0574273,6.1289381 C16.0342869,6.1289381 16.0092584,6.1289381 15.9841913,6.1270235 L15.9841913,6.1270235 L15.9283153,6.12319429 L14.6682553,6.02746405 L13.801215,6.88903621 L12.3657816,8.31541678 L12.3330075,8.34796506 L10.9438162,9.72839512 L10.3330345,10.3353057 C10.2501839,10.4195675 10.1364861,10.469328 10.0170464,10.475091 L10.0170464,10.475091 L9.50645604,10.5 L9.50645604,10.5 L9.48140821,10.5 C9.20202855,10.5 8.97852483,10.262589 9.0016459,9.9830567 L9.0016459,9.9830567 L9.04018103,9.50247175 C9.04788805,9.38952922 9.09798371,9.2822922 9.17890748,9.20189795 L9.17890748,9.20189795 L9.79546948,8.58922441 L11.1846607,7.20877521 L11.2173963,7.17622693 L12.6528297,5.74984635 L13.4505068,4.95719997 L13.3445352,3.58442833 L13.3387742,3.49827111 C13.3175414,3.21873881 13.4196787,2.94495033 13.6181539,2.74774603 L13.6181539,2.74774603 L15.8242898,0.555523539 C15.8628249,0.517231443 15.9109938,0.5 15.9591627,0.5 Z" id="Combined-Shape"></path>
                        </g>
                    </g>
                </g>
            </g>
        </g>
    </g>
</svg>