<?xml version="1.0" encoding="UTF-8"?>
<svg width="19px" height="21px" viewBox="0 0 19 21" version="1.1" xmlns="http://www.w3.org/2000/svg">
    <!-- Generator: Sketch 59.1 (86144) - https://sketch.com -->
    <title>Combined Shape</title>
    <desc>Created with Sketch.</desc>
    <g id="Page-1" stroke="none" stroke-width="1" fill="none" fill-rule="evenodd">
        <g id="Login" transform="translate(-53.000000, -236.000000)" fill="#DFE2E6" fill-rule="nonzero">
            <g id="urban-tribe" transform="translate(53.000000, 236.000000)">
                <path d="M6,17 C6.10174857,17.1300891 6.19015606,17.2431205 6.23547918,17.3010661 L6.23547918,17.3010661 L6.26668451,17.3409005 C7.08638414,18.3875831 8.2774866,18.987859 9.53465482,18.987859 C10.791823,18.987859 11.9829712,18.3875329 12.803082,17.3403487 C12.803082,17.3403487 12.8863724,17.2338894 13,17.0886492 L13,17.0886492 L13,21 L6,21 Z M4,10 L15,10.0096583 L14.9670283,11.5048474 C14.9533276,12.4227575 14.7333968,13.3064247 14.3133451,14.1339403 C14.0260784,14.6999305 13.6224676,15.2096854 13.113653,15.6490313 L13.113653,15.6490313 L12.6262205,16.0699387 C12.5347624,16.1489189 12.4473021,16.2336272 12.3661757,16.3217222 C12.1369463,16.5706207 11.681632,17.0638605 11.681632,17.0638605 C11.1320295,17.6587418 10.333253,18 9.49031963,18 C8.64738624,18 7.84865463,17.6588254 7.29905218,17.0639441 L7.29905218,17.0639441 C7.29177505,17.0560001 6.83062109,16.5564051 6.60583885,16.3121894 C6.5295189,16.2292371 6.44740421,16.1491698 6.36174079,16.0742034 L6.36174079,16.0742034 L5.85153363,15.6276243 C5.35161326,15.1900344 4.95456086,14.6834989 4.6714718,14.1220661 C4.25487898,13.2959721 4.03732894,12.414479 4.02493088,11.5020461 L4.02493088,11.5020461 L4,10 Z M9.77754138,13.182289 L9.05818431,13.182289 C8.6860628,13.182289 8.38437665,13.4630891 8.38437665,13.8094482 C8.38437665,14.1558072 8.6860628,14.4366073 9.05818431,14.4366073 L9.05818431,14.4366073 L9.77754138,14.4366073 C10.1496629,14.4366073 10.451349,14.1558072 10.451349,13.8094482 C10.451349,13.4630891 10.1496629,13.182289 9.77754138,13.182289 L9.77754138,13.182289 Z M1,10 L2.97308901,10.0010489 L3,11 C2.06623037,10.8982528 1.30513089,10.5102646 1,10 L1,10 Z M18,10 C17.6888853,10.5054044 16.9313096,10.8910311 16,11 L16,11 L16.0361388,10.0009109 L17.8784666,10.0018824 C17.9192633,10.0018824 17.9596317,10.0008805 18,10 Z M0.682430094,7 L17.8200222,7.01521913 C18.1957289,7.01556403 18.5,7.16426308 18.5,7.34753929 L18.5,8.66763672 C18.5,8.75589041 18.4280649,8.84047942 18.3000439,8.90282179 C18.2042667,8.94951389 18.0829698,8.98083058 17.9521701,8.99357067 L17.8187961,9 C17.8183874,9 17.8179786,9 17.8175699,9 L0.67997776,8.98478087 C0.304271087,8.98443597 0,8.83573692 0,8.65246071 L0,7.33236328 C0,7.24410959 0.0719351347,7.15952058 0.199956059,7.0971351 C0.327659089,7.03496519 0.500775713,7 0.681203927,7 L0.682430094,7 Z M11.6146559,-4.4408921e-16 C12.3978338,-4.4408921e-16 13.1060289,0.445141196 13.719605,1.3230897 C14.1383775,1.92225914 14.527228,2.74314784 14.8752922,3.76299834 C15.1516241,4.57263289 15.3582274,5.37508306 15.5,6 L15.5,6 L3.5,5.98953488 C3.64172808,5.36611296 3.84757442,4.56806478 4.12234789,3.76299834 C4.47045662,2.74318937 4.85926264,1.92230066 5.27803504,1.3230897 C5.89161119,0.445141196 6.59980631,-4.4408921e-16 7.38298417,-4.4408921e-16 C8.33660975,-4.4408921e-16 8.70488902,0.373878738 9.00041187,0.756810631 C9.04916847,0.819975083 9.09516441,0.879651163 9.14392101,0.930606312 L9.14392101,0.930606312 C9.23266247,1.02213455 9.35991941,1.07126246 9.49879778,1.07126246 C9.63767616,1.07126246 9.76497763,1.02213455 9.84806421,0.936461794 L9.84806421,0.936461794 C9.90247568,0.879651163 9.94847163,0.819975083 9.99722822,0.756810631 C10.2927065,0.373878738 10.6609858,-4.4408921e-16 11.6146559,-4.4408921e-16 Z" id="Combined-Shape"></path>
            </g>
        </g>
    </g>
</svg>