<?xml version="1.0" encoding="UTF-8"?>
<svg width="19px" height="22px" viewBox="0 0 19 22" version="1.1" xmlns="http://www.w3.org/2000/svg">
    <!-- Generator: Sketch 59.1 (86144) - https://sketch.com -->
    <title>trophy</title>
    <desc>Created with Sketch.</desc>
    <g id="Page-1" stroke="none" stroke-width="1" fill="none" fill-rule="evenodd">
        <g id="Challenge" transform="translate(-189.000000, -338.000000)" fill-rule="nonzero">
            <g id="trophy" transform="translate(189.000000, 338.000000)">
                <path d="M18.6201604,2.12154321 C18.3139883,1.76455813 17.8674926,1.55989758 17.3951684,1.55989758 L15.8448928,1.55989758 L15.8448928,1.07907633 C15.8448928,0.484086883 15.3566208,0 14.756584,0 L4.2435029,0 C3.64337945,0 3.15523745,0.484086883 3.15523745,1.07903336 L3.15523745,1.55985461 L1.60478853,1.55985461 C1.13246433,1.55985461 0.685925336,1.76455813 0.379796506,2.12150024 C0.0767879013,2.47474702 -0.0541749137,2.93872449 0.0205804986,3.39440897 C0.427943325,5.87800757 2.00430745,8.07212514 4.24155276,9.27563921 C4.44597089,9.76294876 4.67747432,10.22452 4.93528299,10.6545521 C5.75876261,12.0284805 6.78250006,12.9780058 7.90933497,13.4372137 C8.02352657,14.5820754 7.25521428,15.6666517 6.09813051,15.9251092 C6.09566033,15.9256678 6.09392687,15.9265272 6.09150003,15.9270858 C5.86567368,15.980582 5.69757151,16.1815043 5.69757151,16.421786 L5.69757151,18.7577007 L4.74477586,18.7577007 C3.89529436,18.7577007 3.20420766,19.4429247 3.20420766,20.2851998 L3.20420766,21.4908193 C3.20420766,21.7720503 3.43410764,22 3.71774484,22 L15.3313557,22 C15.6149929,22 15.8448928,21.7720503 15.8448928,21.4908193 L15.8448928,20.2851998 C15.8448928,19.4429247 15.1538061,18.7577007 14.3043246,18.7577007 L13.3514423,18.7577007 L13.3514423,16.4218289 C13.3514423,16.1810746 13.1827334,15.9798515 12.9563004,15.926828 C12.9541769,15.9263124 12.9521401,15.9256249 12.9500166,15.9251092 C11.7841788,15.6649329 11.0144364,14.5694425 11.1406323,13.4159871 C12.2477924,12.9493456 13.2535886,12.0082852 14.064934,10.654638 C14.3227426,10.2245629 14.5542027,9.76294876 14.7586642,9.27555327 C16.9957795,8.07199623 18.5720569,5.87792164 18.9794198,3.39440897 C19.0541752,2.93872449 18.9232124,2.47478999 18.6201604,2.12154321 Z M1.03430723,3.23091256 C1.00761196,3.06818959 1.05298524,2.90847443 1.16210648,2.78120074 C1.27283116,2.65212237 1.43412951,2.57813004 1.60474519,2.57813004 L3.15519411,2.57813004 L3.15519411,3.51493655 C3.15519411,4.98386911 3.34427113,6.40673908 3.70262041,7.70796427 C2.29435845,6.60456759 1.32474825,5.00170118 1.03430723,3.23091256 Z M14.3043246,19.776105 C14.5874851,19.776105 14.8178618,20.0045274 14.8178618,20.2852857 L14.8178618,20.9817246 L4.23123868,20.9817246 L4.23123868,20.2852857 C4.23123868,20.0045274 4.46161536,19.776105 4.74477586,19.776105 L14.3043246,19.776105 L14.3043246,19.776105 Z M12.324368,16.9310096 L12.324368,18.7577437 L6.72473254,18.7577437 L6.72473254,16.9310096 L12.324368,16.9310096 Z M8.07150005,15.9126912 C8.19843257,15.7741597 8.31448764,15.6239836 8.41827849,15.4632372 C8.7605066,14.9330448 8.94013627,14.3307077 8.94819685,13.7155229 C9.13060006,13.740144 9.31469339,13.7533355 9.50034683,13.7533355 C9.70233812,13.7533355 9.90246594,13.7379526 10.1006436,13.7088197 C10.1123445,14.5354971 10.436848,15.3180026 10.9824975,15.9126483 L8.07150005,15.9126483 L8.07150005,15.9126912 Z M14.8177751,3.51497952 C14.8177751,6.02345708 14.2368064,8.37428198 13.1819534,10.1342854 C12.1768939,11.811359 10.8693459,12.7349741 9.50026015,12.7349741 C8.13095768,12.7349741 6.82332301,11.811402 5.81813357,10.1343714 C4.7632372,8.37432495 4.18226847,6.02350005 4.18226847,3.51506546 L4.18226847,1.07903336 C4.18226847,1.04551767 4.20974379,1.0183184 4.24345957,1.0183184 L14.7564974,1.0183184 C14.7902998,1.0183184 14.8177751,1.04556064 14.8177751,1.07903336 L14.8177751,3.51497952 L14.8177751,3.51497952 Z M17.965693,3.23091256 C17.675252,5.00157227 16.7057285,6.60439571 15.2975099,7.70787834 C15.6558158,6.40665314 15.8448928,4.98386911 15.8448928,3.51497952 L15.8448928,2.578173 L17.3951684,2.578173 C17.5658274,2.578173 17.7271258,2.65220831 17.8378071,2.78124371 C17.9469284,2.90847443 17.992345,3.06818959 17.965693,3.23091256 Z" id="Shape" fill="#000000"></path>
                <path d="M12.9720162,5.25446333 C12.9046908,5.0695065 12.7257353,4.93467089 12.5103421,4.90663406 L10.7845902,4.68251193 L10.0128329,3.28489736 C9.91645369,3.11046512 9.71766259,3 9.5,3 C9.28229126,3 9.08350017,3.11046512 8.98716925,3.28489736 L8.21541192,4.68251193 L6.48966001,4.90663406 C6.27421853,4.93458463 6.0952631,5.06946336 6.0279859,5.25450646 C5.96075696,5.43959269 6.01683738,5.64266563 6.17272358,5.77849331 L7.42150233,6.86636557 L7.12666989,8.4024821 C7.089846,8.59425404 7.17802064,8.78801012 7.35417687,8.9024004 C7.53023658,9.01674755 7.7637763,9.03180117 7.95643813,8.9413069 L9.5,8.21610186 L11.0435157,8.9413069 C11.127202,8.9806016 11.2185619,9 11.3095358,9 C11.4280672,9 11.546116,8.96705765 11.6457287,8.90235727 C11.821885,8.78796699 11.9100596,8.5942109 11.8732357,8.40243896 L11.5784033,6.86632244 L12.827182,5.77845017 C12.9831647,5.64266563 13.0392452,5.43954956 12.9720162,5.25446333 Z M10.5648534,6.32189027 C10.4300577,6.4392999 10.3685237,6.60846984 10.4003766,6.77431849 L10.5500852,7.55460513 L9.76606936,7.18620114 C9.68281744,7.14703584 9.59136099,7.12753946 9.4999528,7.12753946 C9.40854461,7.12753946 9.31713641,7.14712211 9.23383624,7.18620114 L8.44982036,7.55460513 L8.59952902,6.77431849 C8.63138193,6.60851297 8.5698479,6.43934303 8.43505219,6.32189027 L7.8008415,5.76934899 L8.6773756,5.65547631 C8.86361858,5.6313215 9.02466881,5.52672255 9.10796899,5.37588438 L9.50000106,4.66599177 L9.89198487,5.37588438 C9.97533331,5.52672255 10.136287,5.63127837 10.3225783,5.65547631 L11.1991124,5.76934899 L10.5648534,6.32189027 Z" id="Shape" fill="#FF5E5E"></path>
            </g>
        </g>
    </g>
</svg>